<svg width="39" height="26" viewBox="0 0 39 26" fill="none" xmlns="http://www.w3.org/2000/svg">
<path d="M1.79798 0.380371H36.533C36.9818 0.392426 37.4075 0.581385 37.7174 0.90625C38.0273 1.23112 38.196 1.66539 38.1869 2.11426V23.7871C38.196 24.236 38.0273 24.6703 37.7174 24.9951C37.4075 25.32 36.9818 25.5089 36.533 25.521H1.79798C1.34919 25.5089 0.923288 25.32 0.61341 24.9951C0.303533 24.6703 0.134787 24.236 0.143928 23.7871V2.11523C0.134519 1.6662 0.303261 1.23182 0.613166 0.906738C0.923072 0.581656 1.34901 0.392426 1.79798 0.380371Z" fill="#F1F1F1"/>
<path d="M0.555794 24.9302C0.290177 24.6094 0.145512 24.2055 0.146858 23.7891V2.11523C0.137449 1.6662 0.306068 1.23182 0.615974 0.906738C0.92588 0.581656 1.35182 0.392426 1.80079 0.380371H36.5348C36.9565 0.381317 37.3609 0.547832 37.6608 0.844238L0.560798 24.9302H0.555794Z" fill="white" fill-opacity="0.73"/>
<path d="M14.792 18.3453L16.0919 15.9952L15.3679 10.3511H17.1389L17.4249 13.6915L19.158 10.3511H20.986L16.777 18.3453H14.792ZM9.23889 14.1295C9.51189 12.7555 10.8389 12.3194 12.8009 12.3194C12.9179 11.7084 12.5289 11.5552 11.8669 11.5782C11.2833 11.6065 10.7095 11.7397 10.173 11.9713L10.3279 10.5982C10.972 10.3981 11.6392 10.2807 12.313 10.2491C13.539 10.2271 14.9019 10.6185 14.5909 12.2115L13.8319 15.9615H12.0609L12.1769 15.3931C11.9713 15.6053 11.7256 15.7746 11.454 15.8907C11.1824 16.0068 10.8904 16.0675 10.595 16.0694C9.75597 16.0654 9.00899 15.5191 9.23999 14.1251L9.23889 14.1295ZM11.0499 14.0421C10.9942 14.121 10.9625 14.2145 10.9587 14.3111C10.955 14.4077 10.9793 14.5034 11.0287 14.5865C11.0781 14.6695 11.1504 14.7366 11.2371 14.7794C11.3237 14.8221 11.421 14.8385 11.517 14.8272C11.7361 14.837 11.9513 14.7673 12.123 14.6309C12.2948 14.4946 12.4116 14.3011 12.4519 14.0855C12.4751 13.917 12.5085 13.75 12.5519 13.5855H12.1039C11.9043 13.567 11.7034 13.5987 11.5193 13.6778C11.3352 13.7569 11.1738 13.8806 11.0499 14.0382V14.0421ZM3.13892 15.9615L4.60291 8.78913H7.90991C8.20471 8.78652 8.49587 8.85475 8.75891 8.98787C9.02196 9.12098 9.24927 9.31518 9.42175 9.55427C9.59424 9.79336 9.70688 10.0703 9.75024 10.3619C9.7936 10.6535 9.76636 10.9511 9.6709 11.2301C9.57571 11.8859 9.24696 12.4853 8.745 12.918C8.24303 13.3507 7.60168 13.5881 6.93896 13.5855H5.55591L5.08093 15.9615H3.13892ZM5.83191 12.2115H6.74194C7.00814 12.1903 7.26019 12.0828 7.46021 11.9058C7.66022 11.7289 7.79739 11.4917 7.85095 11.2301C7.89293 11.1224 7.90833 11.0065 7.89587 10.8917C7.88342 10.7768 7.84349 10.6665 7.77942 10.5704C7.71535 10.4742 7.62905 10.3952 7.52783 10.3394C7.42662 10.2837 7.31339 10.2528 7.19788 10.2501H6.24792L5.83191 12.2115Z" fill="#3284AE"/>
<path d="M26.4559 14.125C26.7319 12.751 28.0729 12.3164 30.0619 12.3164C30.1999 11.7044 29.806 11.5532 29.136 11.5752C28.5398 11.6059 27.9533 11.7385 27.402 11.9673L27.5599 10.5942C28.2197 10.3966 28.9011 10.2796 29.589 10.2461C30.83 10.2241 32.1889 10.615 31.8739 12.207L31.106 15.9561H29.3329L29.4509 15.3901C29.0213 15.8193 28.4401 16.0624 27.8329 16.0664C26.9749 16.0654 26.2189 15.52 26.4559 14.125ZM28.2889 14.0381C28.235 14.1197 28.2057 14.2152 28.2046 14.313C28.2035 14.4108 28.2306 14.5066 28.2826 14.5894C28.3346 14.6722 28.4092 14.7383 28.4978 14.7798C28.5864 14.8212 28.6851 14.8364 28.782 14.8232C28.9998 14.833 29.2136 14.7631 29.3839 14.627C29.5542 14.4909 29.6693 14.2976 29.7079 14.083C29.7469 13.908 29.767 13.755 29.808 13.583H29.3749C29.1699 13.5623 28.9631 13.5931 28.7729 13.6724C28.5828 13.7516 28.4154 13.8769 28.2859 14.0371L28.2889 14.0381ZM31.9249 15.9561L33.391 8.76221H35.2109L33.726 15.9561H31.9249ZM20.356 15.9561L21.818 8.78516H25.1179C25.4119 8.78436 25.7018 8.85365 25.9636 8.9873C26.2254 9.12096 26.4516 9.31516 26.6234 9.55371C26.7952 9.79226 26.9075 10.0682 26.9513 10.3589C26.995 10.6496 26.9688 10.9466 26.8749 11.2251C26.7796 11.8833 26.4489 12.4845 25.9442 12.9175C25.4395 13.3505 24.7949 13.586 24.1299 13.5801H22.767L22.2729 15.9551L20.356 15.9561ZM23.043 12.207H23.9309C24.1992 12.1864 24.4539 12.08 24.6569 11.9033C24.8599 11.7266 25.0005 11.489 25.058 11.2261C25.0978 11.117 25.111 11 25.0964 10.8848C25.0819 10.7695 25.0401 10.6593 24.9745 10.5635C24.9089 10.4676 24.8213 10.3892 24.7191 10.334C24.6169 10.2788 24.5031 10.2484 24.387 10.2461H23.439L23.043 12.207Z" fill="#3CA9C7"/>
</svg>
