<svg width="39" height="26" viewBox="0 0 39 26" fill="none" xmlns="http://www.w3.org/2000/svg">
<path d="M1.74791 0.416992H36.73C36.9532 0.421413 37.1733 0.470028 37.3779 0.55957C37.5825 0.649113 37.7674 0.777939 37.9221 0.938965C38.0768 1.09999 38.1984 1.29006 38.2796 1.49805C38.3609 1.70603 38.4004 1.92811 38.3959 2.15137V23.8271C38.4047 24.2779 38.2342 24.7136 37.9217 25.0386C37.6093 25.3636 37.1807 25.5511 36.73 25.5601H1.74791C1.29718 25.5511 0.868437 25.3636 0.556011 25.0386C0.243585 24.7136 0.07305 24.2779 0.0818895 23.8271V2.15137C0.0773796 1.92811 0.116931 1.70603 0.198222 1.49805C0.279514 1.29006 0.400933 1.09999 0.555644 0.938965C0.710355 0.777939 0.895269 0.649113 1.09983 0.55957C1.3044 0.470028 1.52464 0.421413 1.74791 0.416992Z" fill="#353A40"/>
<path d="M22.7709 16.9813C22.5065 16.8469 22.2891 16.6352 22.147 16.3749C21.9765 16.0562 21.8937 15.6984 21.907 15.3373C21.8923 15.0911 21.9266 14.8445 22.0079 14.6117C22.0893 14.3789 22.2162 14.1647 22.381 13.9813C22.5562 13.8144 22.7638 13.6852 22.9911 13.6019C23.2183 13.5187 23.4603 13.4827 23.7019 13.497C23.9453 13.4813 24.1895 13.5155 24.4192 13.5975C24.6489 13.6796 24.8595 13.8077 25.038 13.974C25.2013 14.154 25.3268 14.3648 25.4073 14.5941C25.4879 14.8234 25.5218 15.0664 25.507 15.309C25.5218 15.6606 25.4532 16.0108 25.3069 16.3309C25.1747 16.5915 24.9689 16.8076 24.715 16.952C24.4176 17.1093 24.0841 17.186 23.7479 17.1742C23.4117 17.1863 23.0772 17.1204 22.7709 16.9813ZM23.1769 14.5643C23.048 14.8027 22.9805 15.0693 22.9805 15.3402C22.9805 15.6112 23.048 15.8778 23.1769 16.1161C23.2449 16.1899 23.3275 16.2486 23.4194 16.2889C23.5113 16.3292 23.6106 16.3505 23.7109 16.3505C23.8113 16.3505 23.9105 16.3292 24.0024 16.2889C24.0944 16.2486 24.1769 16.1899 24.2449 16.1161C24.3965 15.8688 24.4632 15.5786 24.4349 15.2899C24.4565 15.0294 24.3857 14.7697 24.235 14.556C24.1689 14.4795 24.0862 14.4193 23.9934 14.3793C23.9006 14.3393 23.8 14.3206 23.699 14.3251C23.5995 14.3223 23.5007 14.3422 23.4102 14.3837C23.3197 14.4251 23.2398 14.4872 23.1769 14.5643ZM13.2649 17.1381C13.0906 17.1209 12.921 17.0714 12.7649 16.9921C12.6233 16.9148 12.4984 16.8104 12.397 16.6849C12.2932 16.5659 12.2152 16.427 12.168 16.2763C12.1066 16.0819 12.073 15.8799 12.068 15.6762V13.558H13.1389V15.726C13.1341 15.8084 13.1457 15.8912 13.173 15.9691C13.2003 16.047 13.2428 16.1186 13.298 16.1801C13.4193 16.2843 13.5739 16.3417 13.7339 16.3417C13.8939 16.3417 14.0486 16.2843 14.1699 16.1801C14.2251 16.118 14.2674 16.0456 14.2946 15.9672C14.3217 15.8887 14.3329 15.8059 14.3279 15.723V13.5551H15.3989V15.6732C15.3995 15.8774 15.3657 16.0803 15.299 16.2733C15.2373 16.457 15.1347 16.6239 14.9989 16.7621C14.8791 16.8927 14.732 16.9949 14.568 17.0619C14.3267 17.1459 14.0723 17.186 13.8169 17.1801C13.6326 17.1764 13.4487 17.1621 13.266 17.1371L13.2649 17.1381ZM28.4039 17.1141L27.1039 15.162V17.1141H26.0939V13.559H27.0939L28.403 15.5253V13.559H29.4149V17.1141H28.4039ZM18.4259 17.1141L17.126 15.162V17.1141H16.116V13.559H17.116L18.424 15.5253V13.559H19.4359V17.1141H18.4259ZM20.1959 17.1049V13.556H21.2759V17.1049H20.1959ZM11.991 12.1239C11.7594 11.884 11.622 11.5691 11.6039 11.2362L12.626 11.1713C12.6367 11.3099 12.6827 11.4432 12.7599 11.559C12.8156 11.6306 12.8878 11.6877 12.9703 11.7255C13.0529 11.7633 13.1432 11.7809 13.2339 11.7763C13.3619 11.7848 13.4886 11.7449 13.589 11.6649C13.6265 11.6352 13.657 11.5976 13.6781 11.5546C13.6992 11.5116 13.7105 11.4643 13.7111 11.4164C13.7116 11.3685 13.7015 11.3212 13.6814 11.2777C13.6613 11.2342 13.6318 11.1956 13.595 11.1649C13.4287 11.0572 13.241 10.9868 13.0449 10.9589C12.6795 10.8977 12.3341 10.7499 12.038 10.5272C11.9403 10.4422 11.8627 10.3363 11.8108 10.2177C11.7589 10.099 11.7341 9.97061 11.7379 9.84119C11.7384 9.65748 11.7923 9.47778 11.8929 9.32411C12.0069 9.15268 12.1696 9.01948 12.36 8.94129C12.6325 8.83694 12.9235 8.78947 13.215 8.80213C13.5719 8.77832 13.9272 8.86707 14.231 9.05604C14.3535 9.15298 14.4539 9.27514 14.5256 9.41395C14.5974 9.55275 14.6388 9.70519 14.647 9.86121L13.6349 9.92225C13.6216 9.78937 13.5614 9.66547 13.465 9.57313C13.3629 9.49519 13.2361 9.45663 13.1079 9.46424C13.0073 9.45691 12.9073 9.48568 12.8259 9.5453C12.796 9.56925 12.7718 9.59951 12.7554 9.63416C12.7389 9.66881 12.7306 9.70665 12.731 9.745C12.7318 9.77495 12.7393 9.80429 12.7529 9.83094C12.7666 9.8576 12.7861 9.88119 12.8099 9.8993C12.9192 9.96884 13.0424 10.0131 13.1709 10.0292C13.5185 10.0935 13.8572 10.1989 14.1799 10.3431C14.3619 10.4304 14.5155 10.5673 14.6229 10.7382C14.7158 10.8974 14.7636 11.0788 14.761 11.2631C14.7622 11.487 14.6979 11.7062 14.5759 11.8939C14.4505 12.0877 14.2707 12.2401 14.059 12.3319C13.7936 12.439 13.5089 12.4901 13.2229 12.4813C12.7812 12.5275 12.3391 12.3986 11.991 12.1229V12.1239ZM28.4049 12.4139L27.105 10.4613V12.4139H26.095V8.85926H27.095L28.4039 10.8261V8.85926H29.4159V12.4139H28.4049ZM24.5299 12.4139L23.9559 11.327C23.9097 11.224 23.8435 11.1312 23.761 11.0541C23.684 10.9991 23.5915 10.97 23.4969 10.9711H23.402V12.4139H22.3229V8.85926H24.1119C24.3686 8.84919 24.6252 8.87844 24.8729 8.94618C25.0469 9.00301 25.1966 9.11655 25.298 9.26893C25.4091 9.44001 25.4653 9.64117 25.459 9.8451C25.4635 10.0233 25.421 10.1997 25.3359 10.3563C25.2535 10.4987 25.1366 10.6177 24.996 10.703C24.8785 10.7698 24.7512 10.8178 24.6189 10.8451C24.7181 10.8744 24.8125 10.9181 24.8989 10.975C24.9632 11.0306 25.0206 11.0937 25.0699 11.163C25.127 11.2314 25.1776 11.3053 25.2209 11.3832L25.741 12.4139H24.5299ZM23.403 10.2982H23.856C23.9519 10.2913 24.047 10.2749 24.1399 10.2499C24.2096 10.2356 24.2716 10.1962 24.314 10.139C24.3591 10.0796 24.383 10.0067 24.382 9.93202C24.3851 9.88266 24.377 9.83334 24.3585 9.78748C24.34 9.74163 24.3114 9.70025 24.2749 9.66688C24.1552 9.59334 24.0146 9.56153 23.8749 9.57606H23.403V10.2982ZM18.803 12.4139V8.85926H21.6809V9.61805H19.881V10.183H21.553V10.9091H19.881V11.6093H21.736V12.4139H18.803ZM16.1509 12.4139V9.73719H15.0559V8.85926H18.3209V9.73719H17.2209V12.4139H16.1509ZM8.28589 12.4139V8.85926H11.1639V9.61805H9.36389V10.183H11.0349V10.9091H9.35596V11.6093H11.209V12.4139H8.28589ZM6.1189 12.4139L5.50989 10.1752L4.90295 12.4139H3.84998L3.0769 8.85926H4.09692L4.46399 10.849L5.00195 8.85926H6.01794L6.55688 10.8471L6.92395 8.85926H7.93896L7.17297 12.4139H6.1189Z" fill="#ECD345"/>
<path d="M34.2058 17.1763V8.79639H35.4058V17.1763H34.2058ZM31.2158 17.1763V8.79639H32.4158V17.1763H31.2158Z" fill="#ECD345"/>
</svg>
