<svg width="40" height="26" viewBox="0 0 40 26" fill="none" xmlns="http://www.w3.org/2000/svg">
<path d="M2.61485 0.219238H37.5877C38.0385 0.228428 38.4672 0.416032 38.7794 0.741211C39.0916 1.06639 39.2619 1.5024 39.2528 1.95312V23.6274C39.2619 24.0782 39.0916 24.5137 38.7794 24.8389C38.4672 25.164 38.0385 25.3521 37.5877 25.3613H2.61485C2.16413 25.3521 1.73544 25.164 1.4232 24.8389C1.11096 24.5137 0.940701 24.0782 0.949811 23.6274V1.95312C0.940701 1.5024 1.11096 1.06639 1.4232 0.741211C1.73544 0.416032 2.16413 0.228428 2.61485 0.219238Z" fill="#5870BE"/>
<path d="M17.7048 12.786C17.7052 11.0102 18.2322 9.27451 19.219 7.79821C20.2058 6.3219 21.6082 5.17138 23.2489 4.49205C24.8896 3.81273 26.6948 3.6352 28.4364 3.9818C30.178 4.3284 31.7778 5.1836 33.0333 6.43932C34.2889 7.69503 35.1439 9.29485 35.4904 11.0365C35.8368 12.7781 35.6589 14.5834 34.9794 16.224C34.2999 17.8646 33.1493 19.2666 31.6729 20.2533C30.1964 21.2399 28.4606 21.7668 26.6848 21.767C25.5055 21.767 24.3376 21.5347 23.248 21.0834C22.1585 20.632 21.1685 19.9706 20.3346 19.1366C19.5007 18.3026 18.8393 17.3126 18.3881 16.223C17.9368 15.1334 17.7047 13.9654 17.7048 12.786Z" fill="#FFAF38"/>
<path d="M12.9258 21.7651C11.3947 21.7649 9.88907 21.3733 8.55197 20.6274C7.21487 19.8815 6.09069 18.8061 5.28622 17.5034C4.48176 16.2007 4.02373 14.7141 3.95566 13.1845C3.88758 11.655 4.21175 10.1331 4.89731 8.76411C5.58287 7.39509 6.6071 6.22448 7.87265 5.36275C9.13821 4.50101 10.603 3.97696 12.128 3.84077C13.653 3.70459 15.1876 3.96057 16.5858 4.58442C17.984 5.20828 19.1995 6.17934 20.1168 7.40523H18.9168V8.00532H20.5298C20.6508 8.19632 20.7648 8.39419 20.8708 8.59419H18.3167V9.19429H21.1598C21.2478 9.39429 21.3268 9.59439 21.3968 9.79439H17.7168V10.394H21.5848C22.071 12.168 22.004 14.0483 21.3928 15.7832H17.7168V16.3833H21.1557C21.0657 16.5903 20.9688 16.7831 20.8708 16.9741H18.3167V17.5742H20.5228C20.3898 17.7842 20.2508 17.9853 20.1098 18.1743H18.9168V18.7744H19.6168C18.774 19.7147 17.7426 20.467 16.5898 20.9824C15.437 21.4977 14.1885 21.7642 12.9258 21.7651Z" fill="#E63737"/>
<path d="M3.07444 14.4381L3.62114 10.1781L4.46965 10.287L5.09089 13.4326C5.14783 13.7255 5.18866 13.9444 5.21337 14.0893C5.28169 13.9406 5.38646 13.7226 5.52767 13.4355L6.928 10.6024L7.68643 10.6998L7.13973 14.9598L6.59633 14.89L7.05391 11.3245L5.35844 14.7312L4.84991 14.6659L4.08323 10.8813L3.61783 14.5078L3.07444 14.4381ZM10.045 14.9457C9.83018 15.0855 9.62832 15.1777 9.43946 15.2224C9.25253 15.2673 9.05639 15.2766 8.85105 15.2503C8.51203 15.2068 8.26204 15.091 8.10107 14.903C7.94035 14.713 7.87652 14.4892 7.90959 14.2315C7.92898 14.0804 7.98053 13.9472 8.06425 13.8319C8.15015 13.715 8.25316 13.6258 8.37328 13.5644C8.49533 13.5033 8.62859 13.4623 8.77304 13.4415C8.87919 13.4275 9.03753 13.4212 9.24804 13.4227C9.67683 13.4265 9.99546 13.4063 10.2039 13.3622C10.2151 13.2908 10.2219 13.2454 10.2244 13.226C10.2517 13.0129 10.2216 12.8564 10.134 12.7566C10.0155 12.6213 9.82449 12.5367 9.56103 12.5029C9.315 12.4713 9.12731 12.4915 8.99795 12.5635C8.87077 12.6338 8.76505 12.7749 8.68078 12.9866L8.1783 12.8512C8.25288 12.6382 8.35203 12.4718 8.47573 12.3518C8.59968 12.2298 8.76699 12.146 8.97766 12.1001C9.18858 12.0524 9.42675 12.0455 9.69215 12.0796C9.95561 12.1134 10.1657 12.1719 10.3224 12.255C10.4791 12.3381 10.5901 12.4321 10.6554 12.537C10.721 12.6399 10.7601 12.765 10.7727 12.9124C10.7787 13.0037 10.7667 13.1656 10.7369 13.3981L10.6474 14.0955C10.585 14.5818 10.5561 14.8912 10.5608 15.0237C10.5676 15.1545 10.5964 15.2833 10.6471 15.4099L10.1008 15.3398C10.0605 15.2243 10.0419 15.093 10.045 14.9457ZM10.1514 13.7719C9.95157 13.8251 9.65834 13.8544 9.27168 13.8599C9.05267 13.8633 8.89612 13.8786 8.80204 13.906C8.70795 13.9333 8.63185 13.9816 8.57372 14.0509C8.51584 14.1183 8.48106 14.1975 8.46938 14.2886C8.45148 14.4281 8.48887 14.551 8.58154 14.6574C8.67616 14.7641 8.82517 14.8305 9.02858 14.8566C9.23005 14.8824 9.41484 14.8618 9.58294 14.7948C9.7513 14.7258 9.8821 14.6196 9.97536 14.476C10.0467 14.365 10.0972 14.1942 10.1268 13.9637L10.1514 13.7719ZM11.2041 14.545L11.7318 14.53C11.7342 14.7411 11.7942 14.9102 11.9118 15.0376C12.0313 15.1651 12.2102 15.2442 12.4485 15.2748C12.6887 15.3056 12.8731 15.2801 13.0018 15.1981C13.1307 15.1142 13.2036 15.0064 13.2205 14.8747C13.2357 14.7565 13.1963 14.657 13.1023 14.576C13.0366 14.5203 12.866 14.4383 12.5904 14.3301C12.2192 14.184 11.9636 14.0665 11.8234 13.9776C11.6853 13.8871 11.5855 13.7748 11.5239 13.6409C11.4645 13.5053 11.4445 13.3619 11.4639 13.2108C11.4816 13.0733 11.5289 12.9504 11.6058 12.8421C11.6849 12.7321 11.7836 12.6453 11.9021 12.5818C11.9911 12.5322 12.108 12.496 12.2527 12.4732C12.3996 12.4487 12.5534 12.4468 12.7142 12.4674C12.9564 12.4985 13.164 12.5606 13.3372 12.6537C13.5123 12.7471 13.6357 12.8594 13.7075 12.9907C13.7795 13.1201 13.8191 13.2866 13.8265 13.4904L13.3061 13.4945C13.3032 13.3326 13.2513 13.2 13.1504 13.0964C13.0514 12.9931 12.9002 12.9284 12.6968 12.9023C12.4566 12.8715 12.2801 12.8892 12.1672 12.9555C12.0543 13.0217 11.9911 13.1081 11.9774 13.2147C11.9687 13.2825 11.9822 13.3462 12.0178 13.4059C12.0532 13.4676 12.1141 13.5227 12.2004 13.5712C12.2502 13.5972 12.3985 13.6616 12.6453 13.7641C13.0026 13.9104 13.2498 14.0248 13.3869 14.1074C13.5262 14.1883 13.6298 14.2941 13.6977 14.4249C13.7656 14.5557 13.7881 14.7103 13.7652 14.8885C13.7428 15.0628 13.6704 15.2209 13.5478 15.3627C13.4274 15.5028 13.2659 15.6032 13.0631 15.6638C12.8607 15.7225 12.6383 15.7363 12.3962 15.7052C11.9952 15.6538 11.6998 15.5312 11.51 15.3375C11.3222 15.144 11.2202 14.8799 11.2041 14.545ZM15.4727 15.5536L15.489 16.0254C15.3378 16.0375 15.2041 16.036 15.0878 16.0211C14.898 15.9968 14.7546 15.9478 14.6577 15.8744C14.5608 15.8009 14.4973 15.713 14.4671 15.6106C14.4371 15.5064 14.4423 15.2973 14.4826 14.9835L14.7104 13.208L14.3269 13.1588L14.3791 12.752L14.7626 12.8012L14.8607 12.037L15.4211 11.7899L15.2828 12.8679L15.8087 12.9354L15.7565 13.3423L15.2306 13.2748L14.999 15.0793C14.9798 15.2285 14.9763 15.3255 14.9882 15.3703C15.0021 15.4154 15.0278 15.4532 15.0653 15.4836C15.1046 15.5143 15.1631 15.5346 15.2406 15.5445C15.2987 15.552 15.3761 15.555 15.4727 15.5536ZM18.1671 15.3648L18.699 15.501C18.5733 15.8058 18.3839 16.0306 18.131 16.1754C17.8781 16.3201 17.5725 16.3695 17.2141 16.3235C16.7627 16.2656 16.4221 16.0811 16.1923 15.77C15.9646 15.4572 15.883 15.05 15.9474 14.5482C16.014 14.0291 16.1994 13.6433 16.5035 13.3909C16.8076 13.1385 17.1728 13.0396 17.599 13.0943C18.0116 13.1473 18.3307 13.331 18.5561 13.6454C18.7816 13.9599 18.8617 14.3719 18.7963 14.8814C18.7923 14.9124 18.7854 14.9587 18.7755 15.0205L16.474 14.7251C16.4499 15.0666 16.5125 15.3385 16.6618 15.5408C16.8111 15.7431 17.0145 15.8608 17.2722 15.8938C17.464 15.9185 17.6341 15.8891 17.7827 15.8058C17.9312 15.7224 18.0594 15.5754 18.1671 15.3648ZM16.5583 14.2988L18.2815 14.5199C18.2915 14.2574 18.2507 14.0542 18.1588 13.9105C18.0181 13.6876 17.815 13.5592 17.5496 13.5251C17.3094 13.4943 17.0966 13.5487 16.9113 13.6884C16.728 13.8283 16.6103 14.0317 16.5583 14.2988ZM19.2339 16.5119L19.6299 13.4258L20.1007 13.4862L20.0407 13.9541C20.1889 13.7506 20.3178 13.6204 20.4275 13.5636C20.5391 13.5071 20.6559 13.4866 20.778 13.5023C20.9543 13.5249 21.1263 13.6041 21.2939 13.7398L21.0515 14.202C20.9333 14.11 20.8103 14.0558 20.6825 14.0394C20.5682 14.0247 20.461 14.0464 20.361 14.1045C20.2613 14.1606 20.1842 14.2472 20.1298 14.3643C20.0478 14.5428 19.9926 14.7425 19.9643 14.9633L19.757 16.579L19.2339 16.5119ZM24.5195 15.672L25.065 15.8867C24.8874 16.3345 24.629 16.6607 24.2896 16.8653C23.9524 17.0682 23.5621 17.1411 23.1184 17.0842C22.6593 17.0253 22.2973 16.8843 22.0326 16.6613C21.77 16.4366 21.5859 16.1373 21.4803 15.7634C21.3766 15.3897 21.3509 14.9995 21.4031 14.5927C21.46 14.149 21.5939 13.7734 21.8047 13.4657C22.0177 13.1563 22.291 12.9364 22.6248 12.8059C22.9608 12.6738 23.3167 12.6318 23.6925 12.6801C24.1187 12.7347 24.4631 12.8892 24.7259 13.1435C24.9886 13.3978 25.1519 13.7288 25.2157 14.1368L24.6439 14.1963C24.5849 13.8737 24.4705 13.6296 24.3008 13.4641C24.131 13.2985 23.9037 13.1975 23.619 13.1609C23.2916 13.1189 23.0074 13.1622 22.7664 13.2908C22.5274 13.4196 22.3462 13.611 22.2231 13.865C22.1001 14.117 22.0207 14.3834 21.9846 14.6643C21.9381 15.0266 21.9498 15.3501 22.0196 15.6347C22.0916 15.9176 22.2304 16.1403 22.436 16.3025C22.6416 16.4648 22.8742 16.5626 23.1338 16.5959C23.4496 16.6364 23.7286 16.5797 23.9709 16.4256C24.2132 16.2716 24.3961 16.0204 24.5195 15.672ZM27.5848 17.1966C27.3699 17.3364 27.1681 17.4287 26.9792 17.4733C26.7923 17.5183 26.5961 17.5276 26.3908 17.5012C26.0518 17.4577 25.8018 17.3419 25.6408 17.1539C25.4801 16.9639 25.4163 16.7401 25.4493 16.4825C25.4687 16.3314 25.5203 16.1982 25.604 16.0829C25.6899 15.9659 25.7929 15.8767 25.913 15.8154C26.0351 15.7542 26.1683 15.7132 26.3128 15.6924C26.4189 15.6784 26.5773 15.6722 26.7878 15.6736C27.2166 15.6774 27.5352 15.6573 27.7437 15.6131C27.7548 15.5417 27.7616 15.4963 27.7641 15.4769C27.7915 15.2638 27.7613 15.1074 27.6737 15.0075C27.5552 14.8722 27.3642 14.7876 27.1008 14.7538C26.8547 14.7222 26.6671 14.7425 26.5377 14.8145C26.4105 14.8848 26.3048 15.0258 26.2205 15.2375L25.718 15.1021C25.7926 14.8892 25.8918 14.7227 26.0155 14.6027C26.1394 14.4808 26.3067 14.3969 26.5174 14.3511C26.7283 14.3033 26.9665 14.2965 27.2319 14.3305C27.4954 14.3643 27.7054 14.4228 27.8622 14.5059C28.0189 14.5891 28.1299 14.6831 28.1952 14.7879C28.2607 14.8909 28.2998 15.016 28.3124 15.1633C28.3184 15.2547 28.3065 15.4166 28.2767 15.6491L28.1872 16.3465C28.1248 16.8327 28.0959 17.1421 28.1005 17.2746C28.1074 17.4055 28.1361 17.5342 28.1868 17.6608L27.6405 17.5907C27.6002 17.4753 27.5816 17.3439 27.5848 17.1966ZM27.6911 16.0229C27.4913 16.076 27.1981 16.1053 26.8114 16.1108C26.5924 16.1142 26.4359 16.1296 26.3418 16.1569C26.2477 16.1842 26.1716 16.2325 26.1135 16.3019C26.0556 16.3693 26.0208 16.4485 26.0091 16.5395C25.9912 16.679 26.0286 16.802 26.1213 16.9084C26.2159 17.015 26.3649 17.0814 26.5683 17.1075C26.7698 17.1334 26.9546 17.1128 27.1227 17.0457C27.291 16.9768 27.4218 16.8705 27.5151 16.7269C27.5864 16.6159 27.6369 16.4452 27.6665 16.2147L27.6911 16.0229ZM28.829 17.7432L29.2251 14.6572L29.6958 14.7176L29.6358 15.1855C29.784 14.982 29.9129 14.8518 30.0226 14.795C30.1342 14.7384 30.2511 14.718 30.3731 14.7337C30.5494 14.7563 30.7214 14.8355 30.8891 14.9712L30.6466 15.4333C30.5285 15.3414 30.4055 15.2872 30.2776 15.2708C30.1633 15.2561 30.0562 15.2778 29.9562 15.3359C29.8564 15.392 29.7793 15.4786 29.7249 15.5957C29.6429 15.7742 29.5878 15.9739 29.5594 16.1947L29.3521 17.8104L28.829 17.7432ZM32.8188 18.2553L32.8688 17.8659C32.6338 18.1468 32.3265 18.263 31.9468 18.2142C31.7008 18.1827 31.4828 18.0858 31.2929 17.9236C31.105 17.7616 30.9694 17.5522 30.8862 17.2954C30.8051 17.0369 30.7849 16.7497 30.8254 16.434C30.8649 16.1259 30.9521 15.8536 31.0868 15.6168C31.2218 15.3782 31.4006 15.2052 31.6231 15.0979C31.8456 14.9906 32.0837 14.9532 32.3375 14.9858C32.5235 15.0096 32.684 15.0706 32.8191 15.1687C32.9544 15.2648 33.0596 15.3817 33.1345 15.5193L33.3306 13.9908L33.8508 14.0575L33.3041 18.3175L32.8188 18.2553ZM31.363 16.503C31.3123 16.8982 31.3577 17.2043 31.4992 17.4213C31.6407 17.6384 31.8247 17.7614 32.0514 17.7905C32.28 17.8198 32.4856 17.7517 32.6684 17.5861C32.8533 17.4189 32.9703 17.1434 33.0196 16.7599C33.0737 16.3375 33.0322 16.0171 32.8948 15.7987C32.7574 15.5802 32.5696 15.4556 32.3313 15.4251C32.0989 15.3952 31.892 15.4652 31.7107 15.6349C31.5314 15.8048 31.4155 16.0942 31.363 16.503Z" fill="white"/>
</svg>
