<svg width="87" height="13" viewBox="0 0 87 13" fill="none" xmlns="http://www.w3.org/2000/svg">
<path d="M49.8911 4.99072L45.9051 7.75366L47.0751 12.2438L43.2031 9.53174L39.0811 12.0997L40.6731 7.65967L36.9561 4.75977L41.8121 4.72766L43.6371 0.365723L45.0461 4.78577L49.8911 4.99072Z" fill="#FFC600"/>
<path d="M31.621 4.99072L27.636 7.75366L28.806 12.2438L24.934 9.53174L20.812 12.0997L22.404 7.65967L18.686 4.75977L23.543 4.72766L25.368 0.365723L26.777 4.78577L31.621 4.99072Z" fill="#FFC600"/>
<path d="M13.351 4.99072L9.36603 7.75366L10.536 12.2438L6.66302 9.53174L2.54105 12.0997L4.13303 7.65967L0.415039 4.75977L5.27103 4.72766L7.09604 0.365723L8.50504 4.78577L13.351 4.99072Z" fill="#FFC600"/>
<path d="M68.162 4.99072L64.177 7.75366L65.347 12.2438L61.475 9.53174L57.353 12.0997L58.945 7.65967L55.2271 4.75977L60.084 4.72766L61.9091 0.365723L63.3181 4.78577L68.162 4.99072Z" fill="#FFC600"/>
<path d="M86.4331 4.99072L82.4471 7.75366L83.6171 12.2438L79.7441 9.53174L75.6221 12.0997L77.2141 7.65967L73.4961 4.75977L78.3521 4.72766L80.1771 0.365723L81.5861 4.78577L86.4331 4.99072Z" fill="#C1C8CE"/>
</svg>
